<svg id="Layer_1" data-name="Layer 1" xmlns="http://www.w3.org/2000/svg" xmlns:xlink="http://www.w3.org/1999/xlink" viewBox="0 0 1132.45 185"><defs><style>.cls-1{opacity:0.51;fill:url(#linear-gradient);}.cls-2{opacity:0.2;fill:url(#linear-gradient-2);}.cls-3{fill:url(#linear-gradient-3);}</style><linearGradient id="linear-gradient" x1="257.08" y1="14.63" x2="919.05" y2="262.16" gradientUnits="userSpaceOnUse"><stop offset="0" stop-color="#ffa851"/><stop offset="0.28" stop-color="#ffd96f"/><stop offset="0.92" stop-color="#ffa851"/></linearGradient><linearGradient id="linear-gradient-2" x1="2067.14" y1="240.85" x2="2477.16" y2="394.17" gradientTransform="matrix(-0.99, -0.11, -0.12, 1.03, 3076.56, 92.03)" xlink:href="#linear-gradient"/><linearGradient id="linear-gradient-3" x1="771.68" y1="-179.95" x2="308.69" y2="357.07" gradientTransform="translate(-1.03 0.62) rotate(-0.03)" gradientUnits="userSpaceOnUse"><stop offset="0" stop-color="#ffa851"/><stop offset="0.28" stop-color="#ffd96f"/><stop offset="0.38" stop-color="#ffca66"/><stop offset="0.55" stop-color="#ffb75a"/><stop offset="0.73" stop-color="#ffac53"/><stop offset="0.92" stop-color="#ffa851"/></linearGradient></defs><title>Flow_Header</title><path class="cls-1" d="M1012.3,102.26c-208.49-46.18-718.82,167.45-1011.07,7v-25Z" transform="translate(-0.77)"/><path class="cls-2" d="M532.23,149.26c224.53,44.52,471.89,49.28,599,3.91l2-39.91c-125.27-25.77-220.87-19.77-331-6C713.3,118.38,626.23,137.26,532.23,149.26Z" transform="translate(-0.77)"/><path class="cls-3" d="M.77.52s.34,87,.52,87C305.17,206.37,810.1,60.14,1133.07,113l0-113Z" transform="translate(-0.77)"/></svg>