<svg id="Layer_1" data-name="Layer 1" xmlns="http://www.w3.org/2000/svg" viewBox="0 0 900 200"><defs><style>.cls-1{fill:#fcfcfc;}.cls-2{fill:#fdfdfd;}.cls-3{fill:#ffd96f;}</style></defs><title> happihour</title><path class="cls-1" d="M7,154a8.49,8.49,0,0,1-2.86-6.79V11.45A8,8,0,0,1,7.05,4.87,10.63,10.63,0,0,1,14,2.5a10.52,10.52,0,0,1,6.85,2.32,8.07,8.07,0,0,1,2.85,6.63V66.13a30.68,30.68,0,0,1,14-13.86,46.32,46.32,0,0,1,21.57-5A44.9,44.9,0,0,1,74,49.58,36.19,36.19,0,0,1,86.17,56.7a31.85,31.85,0,0,1,8.52,12.89,52.59,52.59,0,0,1,3.07,18.76v58.89A8.44,8.44,0,0,1,94.85,154a10.3,10.3,0,0,1-6.91,2.49A10,10,0,0,1,81.2,154a8.52,8.52,0,0,1-2.85-6.79v-60q0-12.83-6.21-19.19T55.05,61.71a31.08,31.08,0,0,0-22.33,8.68q-9.06,8.69-9.06,24.54v52.31a8.38,8.38,0,0,1-3,6.79,10.5,10.5,0,0,1-7,2.49A9.93,9.93,0,0,1,7,154Z"/><path class="cls-1" d="M119.5,150.37q-10.56-8.09-10.57-23a40,40,0,0,1,1.3-10.78,27.57,27.57,0,0,1,3.66-8.14,19.45,19.45,0,0,1,6.69-5.94,48,48,0,0,1,9.49-4,71.83,71.83,0,0,1,13.16-2.37q8-.81,16.45-1.13t20.44-.32V83q0-11.53-6.15-17t-17.15-5.5a63.3,63.3,0,0,0-13.16,1.4,77.32,77.32,0,0,0-10.35,2.8Q129.53,66,124,68.51a5.73,5.73,0,0,1-2.59.54,6.3,6.3,0,0,1-4.85-2.32,7.57,7.57,0,0,1-2-5.13,5.44,5.44,0,0,1,3-5q16.73-9.37,39.8-9.38,19.74,0,30.9,9.17t11.16,28.25v62.88a8.14,8.14,0,0,1-3,6.64,10.54,10.54,0,0,1-6.85,2.42A9.91,9.91,0,0,1,183,154.3a8,8,0,0,1-2.76-6.52V137.43q-10,21-33.21,21Q130.07,158.46,119.5,150.37Zm51.29-15.1q9.33-10.25,9.33-26.1v-3.24q-13.38,0-21.79.49a115.46,115.46,0,0,0-14.88,1.72q-6.48,1.24-9.71,3.67a15,15,0,0,0-4.8,5.88,21.58,21.58,0,0,0-1.56,8.84q0,9.83,5.82,14.4t15.86,4.58Q161.45,145.51,170.79,135.27Z"/><path class="cls-1" d="M222.89,195.07a8.17,8.17,0,0,1-2.91-6.63v-130a8.19,8.19,0,0,1,2.86-6.69,10.38,10.38,0,0,1,6.85-2.37c3.23,0,5.68.81,7.33,2.42a8.88,8.88,0,0,1,2.48,6.64v9.6a35,35,0,0,1,14.83-15.59,45.76,45.76,0,0,1,22.17-5.23,44,44,0,0,1,20.22,4.58,40,40,0,0,1,14.61,12.41,59.09,59.09,0,0,1,8.58,17.85,75.14,75.14,0,0,1,3,21.35A69.56,69.56,0,0,1,319.64,125a54.87,54.87,0,0,1-9.22,17.47,41.31,41.31,0,0,1-15.21,11.76,48.16,48.16,0,0,1-20.44,4.26,42.25,42.25,0,0,1-21.19-5.23,34.54,34.54,0,0,1-14.08-14.94v50.15a8.17,8.17,0,0,1-2.91,6.63,10.42,10.42,0,0,1-6.9,2.43A10.29,10.29,0,0,1,222.89,195.07Zm63.91-53.71a26,26,0,0,0,9.76-10,53.27,53.27,0,0,0,5.12-13.43A65.07,65.07,0,0,0,303.35,103a76.53,76.53,0,0,0-.86-11.54,54.36,54.36,0,0,0-3.08-11.33,37.58,37.58,0,0,0-5.55-9.92,25.73,25.73,0,0,0-8.68-6.9A27.51,27.51,0,0,0,273,60.53q-33.44,0-33.43,42.81a62,62,0,0,0,1.83,15.37A47.17,47.17,0,0,0,247,131.92a27.06,27.06,0,0,0,10.14,9.6,30.17,30.17,0,0,0,14.93,3.56A28.48,28.48,0,0,0,286.8,141.36Z"/><path class="cls-1" d="M340.19,195.07a8.17,8.17,0,0,1-2.91-6.63v-130a8.19,8.19,0,0,1,2.86-6.69A10.38,10.38,0,0,1,347,49.42c3.23,0,5.68.81,7.33,2.42a8.84,8.84,0,0,1,2.48,6.64v9.6a35,35,0,0,1,14.83-15.59,45.79,45.79,0,0,1,22.17-5.23A44,44,0,0,1,414,51.84a40,40,0,0,1,14.61,12.41,59.09,59.09,0,0,1,8.58,17.85,74.79,74.79,0,0,1,3,21.35A69.26,69.26,0,0,1,436.94,125a54.87,54.87,0,0,1-9.22,17.47,41.22,41.22,0,0,1-15.21,11.76,48.16,48.16,0,0,1-20.44,4.26,42.27,42.27,0,0,1-21.19-5.23,34.54,34.54,0,0,1-14.08-14.94v50.15a8.17,8.17,0,0,1-2.91,6.63,10.42,10.42,0,0,1-6.9,2.43A10.31,10.31,0,0,1,340.19,195.07Zm63.91-53.71a25.9,25.9,0,0,0,9.76-10A52.89,52.89,0,0,0,419,117.9,64.51,64.51,0,0,0,420.65,103a76.53,76.53,0,0,0-.86-11.54,54.94,54.94,0,0,0-3.07-11.33,37.88,37.88,0,0,0-5.56-9.92,25.73,25.73,0,0,0-8.68-6.9,27.46,27.46,0,0,0-12.13-2.8q-33.44,0-33.44,42.81a62,62,0,0,0,1.83,15.37,47.46,47.46,0,0,0,5.56,13.21,27.06,27.06,0,0,0,10.14,9.6,30.18,30.18,0,0,0,14.94,3.56A28.47,28.47,0,0,0,404.1,141.36Z"/><path class="cls-1" d="M451.89,42.09a11.31,11.31,0,0,1-3.45-8.58A11.37,11.37,0,0,1,452,24.89a12.79,12.79,0,0,1,9.22-3.35,12.6,12.6,0,0,1,9.06,3.29,11.46,11.46,0,0,1,3.45,8.68,11.31,11.31,0,0,1-3.45,8.58,14.42,14.42,0,0,1-18.34,0Z"/><path class="cls-2" d="M458.57,154c-1.87-1.69-2.8-4.11-2.8-7.28V59a8.94,8.94,0,0,1,3-7.12,10.2,10.2,0,0,1,6.95-2.59,9.68,9.68,0,0,1,6.74,2.59A9.1,9.1,0,0,1,475.29,59V146.7a9.13,9.13,0,0,1-3,7.17,10.11,10.11,0,0,1-7,2.65A9.79,9.79,0,0,1,458.57,154Z"/><path class="cls-3" d="M499.35,154a8.52,8.52,0,0,1-2.85-6.79V11.45a8,8,0,0,1,2.91-6.58,11.25,11.25,0,0,1,13.75,0A8.07,8.07,0,0,1,516,11.45V66.13a30.66,30.66,0,0,1,14-13.86,46.32,46.32,0,0,1,21.57-5,44.86,44.86,0,0,1,14.72,2.32,36.09,36.09,0,0,1,12.19,7.12A31.85,31.85,0,0,1,587,69.59a52.59,52.59,0,0,1,3.07,18.76v58.89A8.44,8.44,0,0,1,587.2,154a10.27,10.27,0,0,1-6.9,2.49,9.92,9.92,0,0,1-6.74-2.49,8.49,8.49,0,0,1-2.86-6.79v-60q0-12.83-6.2-19.19t-17.1-6.37a31.06,31.06,0,0,0-22.32,8.68Q516,79.08,516,94.93v52.31a8.36,8.36,0,0,1-3,6.79,10.5,10.5,0,0,1-7,2.49A10,10,0,0,1,499.35,154Z"/><path class="cls-3" d="M617.63,142.82Q603,127.17,603,102.91t14.62-40q14.61-15.65,39.42-15.64t39.42,15.58q14.61,15.6,14.61,40.07,0,24.27-14.56,39.91t-39.47,15.64Q632.24,158.46,617.63,142.82Zm64.92-9q9.12-11.27,9.12-30.9T682.45,72q-9.23-11.43-25.4-11.43T631.59,71.9q-9.17,11.38-9.16,31,0,19.41,9.11,30.79t25.29,11.38Q673.44,145.08,682.55,133.81Z"/><path class="cls-3" d="M733.17,148.51Q723,138.57,723,118.56V63a8.05,8.05,0,0,1,2.78-6.54,10,10,0,0,1,6.6-2.32,9.78,9.78,0,0,1,6.55,2.32A8.11,8.11,0,0,1,741.67,63v55.78q0,13.19,6,20t17.11,6.85a27.24,27.24,0,0,0,20.21-8.4q8.25-8.4,9-23V63a8.07,8.07,0,0,1,2.78-6.49,9.87,9.87,0,0,1,6.6-2.37,9.55,9.55,0,0,1,6.49,2.32A8.17,8.17,0,0,1,812.49,63v84.85a7.9,7.9,0,0,1-2.78,6.44,10,10,0,0,1-6.6,2.32,9.83,9.83,0,0,1-6.49-2.22,7.61,7.61,0,0,1-2.68-6.23V139a29,29,0,0,1-12.89,14.44,41.79,41.79,0,0,1-20.82,5.05Q743.31,158.46,733.17,148.51Z"/><path class="cls-3" d="M841.39,154.14a8.27,8.27,0,0,1-2.8-6.68v-89a8,8,0,0,1,2.91-6.64,10.77,10.77,0,0,1,6.9-2.32,10.57,10.57,0,0,1,6.85,2.32,7.81,7.81,0,0,1,2.86,6.42L858,71.2a32.2,32.2,0,0,1,10.84-16.77,29.73,29.73,0,0,1,19.58-6.74,6.48,6.48,0,0,1,5.44,2.59,9.61,9.61,0,0,1,2,6A8.61,8.61,0,0,1,894,61.87a6.32,6.32,0,0,1-5.28,2.32q-14.57,0-22.6,7.55t-8,20.17v55.55a8.06,8.06,0,0,1-3,6.68,10.81,10.81,0,0,1-6.95,2.38A10.2,10.2,0,0,1,841.39,154.14Z"/><path class="cls-3" d="M730.06,42.35a9.47,9.47,0,0,1-3-7.28,9.27,9.27,0,0,1,3-7.09,12.09,12.09,0,0,1,15.35,0,9.26,9.26,0,0,1,3,7.09,9.47,9.47,0,0,1-3,7.28,12.05,12.05,0,0,1-15.35,0Z"/><path class="cls-3" d="M792.15,42A10.56,10.56,0,0,1,788.87,34a10.31,10.31,0,0,1,3.28-7.87,13.42,13.42,0,0,1,17.06,0A10.28,10.28,0,0,1,812.49,34,10.52,10.52,0,0,1,809.21,42a13.39,13.39,0,0,1-17.06,0Z"/></svg>